#Comment line ignore any data following # character 
#Hierarchical Translation and Rotation (.htr) file 
[Header]	
#Header keywords are followed by a single value 
FileType HTR		#Single word string
DataType HTRS		#Translation followed by rotation and scale data
FileVersion 1		#integer
NumSegments 84		#integer
NumFrames 2		#integer
DataFrameRate 30		#integer, data frame rate in this file
EulerRotationOrder ZYX
CalibrationUnits mm
RotationUnits Degrees
GlobalAxisofGravity Y
BoneLengthAxis Y
ScaleFactor 1.00
[SegmentNames&Hierarchy]
#CHILD	PARENT
MASTER GLOBAL
root MASTER
chest root
L_mid_tent01 root
R_mid_tent01 root
spine01 root
Bip01_Neck chest
L_humerus chest
R_humerus chest
weapon_bone chest
Bip01_Head Bip01_Neck
eye_left_bone Bip01_Head
eye_right_bone Bip01_Head
L_forearm L_humerus
L_front_hand L_forearm
L_weapon_bone L_forearm
L_front_hand01_01 L_front_hand
L_front_hand02_01 L_front_hand
L_front_hand03_01 L_front_hand
L_front_hand01_02 L_front_hand01_01
L_front_hand02_02 L_front_hand02_01
L_front_hand03_02 L_front_hand03_01
R_forearm R_humerus
R_front_hand R_forearm
R_weapon_bone R_forearm
R_front_hand01_01 R_front_hand
R_front_hand02_01 R_front_hand
R_front_hand03_01 R_front_hand
R_front_hand01_02 R_front_hand01_01
R_front_hand02_02 R_front_hand02_01
R_front_hand03_02 R_front_hand03_01
null_rope01_connect L_mid_tent01
Rope1_Seg01 null_rope01_connect
Rope1_Seg02 Rope1_Seg01
Rope1_Seg03 Rope1_Seg02
Rope1_Seg04 Rope1_Seg03
Rope1_Seg05 Rope1_Seg04
Rope1_Seg06 Rope1_Seg05
Rope1_Seg07 Rope1_Seg06
Rope1_Seg09 Rope1_Seg07
L_mid_hand01 Rope1_Seg09
L_mid_hand02 Rope1_Seg09
L_mid_hand03 Rope1_Seg09
null_rope02_connect R_mid_tent01
Rope2_Seg01 null_rope02_connect
Rope2_Seg02 Rope2_Seg01
Rope2_Seg03 Rope2_Seg02
Rope2_Seg04 Rope2_Seg03
Rope2_Seg05 Rope2_Seg04
Rope2_Seg06 Rope2_Seg05
Rope2_Seg07 Rope2_Seg06
Rope2_Seg09 Rope2_Seg07
R_mid_hand01 Rope2_Seg09
R_mid_hand02 Rope2_Seg09
R_mid_hand03 Rope2_Seg09
spine02 spine01
spine03 spine02
pelvis spine03
null_rope03_connect pelvis
null_rope04_connect pelvis
Rope3_Seg01 null_rope03_connect
Rope3_Seg02 Rope3_Seg01
Rope3_Seg03 Rope3_Seg02
Rope3_Seg04 Rope3_Seg03
Rope3_Seg05 Rope3_Seg04
Rope3_Seg06 Rope3_Seg05
Rope3_Seg07 Rope3_Seg06
Rope3_Seg08 Rope3_Seg07
Rope3_Seg09 Rope3_Seg08
R_rear_hand01 Rope3_Seg09
R_rear_hand02 Rope3_Seg09
R_rear_hand03 Rope3_Seg09
Rope4_Seg01 null_rope04_connect
Rope4_Seg02 Rope4_Seg01
Rope4_Seg03 Rope4_Seg02
Rope4_Seg04 Rope4_Seg03
Rope4_Seg05 Rope4_Seg04
Rope4_Seg06 Rope4_Seg05
Rope4_Seg07 Rope4_Seg06
Rope4_Seg08 Rope4_Seg07
Rope4_Seg09 Rope4_Seg08
L_rear_hand01 Rope4_Seg09
L_rear_hand02 Rope4_Seg09
L_rear_hand03 Rope4_Seg09
[BasePosition]
#SegmentName Tx, Ty, Tz, Rx, Ry, Rz, BoneLength
MASTER 0.000000 0.000000 0.000000 -90.000000 0.000000 0.000000 10.000000 
root 0.000000 0.000000 0.000000 0.000000 0.000000 0.000000 10.000000 
chest 0.000000 0.000000 0.000000 0.000000 0.000000 0.000000 10.000000 
L_mid_tent01 0.000000 0.000000 0.000000 0.000000 0.000000 0.000000 10.000000 
R_mid_tent01 0.000000 0.000000 0.000000 0.000000 0.000000 0.000000 10.000000 
spine01 0.000000 0.000000 0.000000 0.000000 0.000000 0.000000 10.000000 
Bip01_Neck 0.000000 0.000000 0.000000 0.000000 0.000000 0.000000 10.000000 
L_humerus 0.000000 0.000000 0.000000 0.000000 0.000000 0.000000 10.000000 
R_humerus 0.000000 0.000000 0.000000 0.000000 0.000000 0.000000 10.000000 
weapon_bone 0.000000 0.000000 0.000000 0.000000 0.000000 0.000000 10.000000 
Bip01_Head 0.000000 0.000000 0.000000 0.000000 0.000000 0.000000 10.000000 
eye_left_bone 0.000000 0.000000 0.000000 0.000000 0.000000 0.000000 10.000000 
eye_right_bone 0.000000 0.000000 0.000000 0.000000 0.000000 0.000000 10.000000 
L_forearm 0.000000 0.000000 0.000000 0.000000 0.000000 0.000000 10.000000 
L_front_hand 0.000000 0.000000 0.000000 0.000000 0.000000 0.000000 10.000000 
L_weapon_bone 0.000000 0.000000 0.000000 0.000000 0.000000 0.000000 10.000000 
L_front_hand01_01 0.000000 0.000000 0.000000 0.000000 0.000000 0.000000 10.000000 
L_front_hand02_01 0.000000 0.000000 0.000000 0.000000 0.000000 0.000000 10.000000 
L_front_hand03_01 0.000000 0.000000 0.000000 0.000000 0.000000 0.000000 10.000000 
L_front_hand01_02 0.000000 0.000000 0.000000 0.000000 0.000000 0.000000 10.000000 
L_front_hand02_02 0.000000 0.000000 0.000000 0.000000 0.000000 0.000000 10.000000 
L_front_hand03_02 0.000000 0.000000 0.000000 0.000000 0.000000 0.000000 10.000000 
R_forearm 0.000000 0.000000 0.000000 0.000000 0.000000 0.000000 10.000000 
R_front_hand 0.000000 0.000000 0.000000 0.000000 0.000000 0.000000 10.000000 
R_weapon_bone 0.000000 0.000000 0.000000 0.000000 0.000000 0.000000 10.000000 
R_front_hand01_01 0.000000 0.000000 0.000000 0.000000 0.000000 0.000000 10.000000 
R_front_hand02_01 0.000000 0.000000 0.000000 0.000000 0.000000 0.000000 10.000000 
R_front_hand03_01 0.000000 0.000000 0.000000 0.000000 0.000000 0.000000 10.000000 
R_front_hand01_02 0.000000 0.000000 0.000000 0.000000 0.000000 0.000000 10.000000 
R_front_hand02_02 0.000000 0.000000 0.000000 0.000000 0.000000 0.000000 10.000000 
R_front_hand03_02 0.000000 0.000000 0.000000 0.000000 0.000000 0.000000 10.000000 
null_rope01_connect 0.000000 0.000000 0.000000 0.000000 0.000000 0.000000 10.000000 
Rope1_Seg01 0.000000 0.000000 0.000000 0.000000 0.000000 0.000000 10.000000 
Rope1_Seg02 0.000000 0.000000 0.000000 0.000000 0.000000 0.000000 10.000000 
Rope1_Seg03 0.000000 0.000000 0.000000 0.000000 0.000000 0.000000 10.000000 
Rope1_Seg04 0.000000 0.000000 0.000000 0.000000 0.000000 0.000000 10.000000 
Rope1_Seg05 0.000000 0.000000 0.000000 0.000000 0.000000 0.000000 10.000000 
Rope1_Seg06 0.000000 0.000000 0.000000 0.000000 0.000000 0.000000 10.000000 
Rope1_Seg07 0.000000 0.000000 0.000000 0.000000 0.000000 0.000000 10.000000 
Rope1_Seg09 0.000000 0.000000 0.000000 0.000000 0.000000 0.000000 10.000000 
L_mid_hand01 0.000000 0.000000 0.000000 0.000000 0.000000 0.000000 10.000000 
L_mid_hand02 0.000000 0.000000 0.000000 0.000000 0.000000 0.000000 10.000000 
L_mid_hand03 0.000000 0.000000 0.000000 0.000000 0.000000 0.000000 10.000000 
null_rope02_connect 0.000000 0.000000 0.000000 0.000000 0.000000 0.000000 10.000000 
Rope2_Seg01 0.000000 0.000000 0.000000 0.000000 0.000000 0.000000 10.000000 
Rope2_Seg02 0.000000 0.000000 0.000000 0.000000 0.000000 0.000000 10.000000 
Rope2_Seg03 0.000000 0.000000 0.000000 0.000000 0.000000 0.000000 10.000000 
Rope2_Seg04 0.000000 0.000000 0.000000 0.000000 0.000000 0.000000 10.000000 
Rope2_Seg05 0.000000 0.000000 0.000000 0.000000 0.000000 0.000000 10.000000 
Rope2_Seg06 0.000000 0.000000 0.000000 0.000000 0.000000 0.000000 10.000000 
Rope2_Seg07 0.000000 0.000000 0.000000 0.000000 0.000000 0.000000 10.000000 
Rope2_Seg09 0.000000 0.000000 0.000000 0.000000 0.000000 0.000000 10.000000 
R_mid_hand01 0.000000 0.000000 0.000000 0.000000 0.000000 0.000000 10.000000 
R_mid_hand02 0.000000 0.000000 0.000000 0.000000 0.000000 0.000000 10.000000 
R_mid_hand03 0.000000 0.000000 0.000000 0.000000 0.000000 0.000000 10.000000 
spine02 0.000000 0.000000 0.000000 0.000000 0.000000 0.000000 10.000000 
spine03 0.000000 0.000000 0.000000 0.000000 0.000000 0.000000 10.000000 
pelvis 0.000000 0.000000 0.000000 0.000000 0.000000 0.000000 10.000000 
null_rope03_connect 0.000000 0.000000 0.000000 0.000000 0.000000 0.000000 10.000000 
null_rope04_connect 0.000000 0.000000 0.000000 0.000000 0.000000 0.000000 10.000000 
Rope3_Seg01 0.000000 0.000000 0.000000 0.000000 0.000000 0.000000 10.000000 
Rope3_Seg02 0.000000 0.000000 0.000000 0.000000 0.000000 0.000000 10.000000 
Rope3_Seg03 0.000000 0.000000 0.000000 0.000000 0.000000 0.000000 10.000000 
Rope3_Seg04 0.000000 0.000000 0.000000 0.000000 0.000000 0.000000 10.000000 
Rope3_Seg05 0.000000 0.000000 0.000000 0.000000 0.000000 0.000000 10.000000 
Rope3_Seg06 0.000000 0.000000 0.000000 0.000000 0.000000 0.000000 10.000000 
Rope3_Seg07 0.000000 0.000000 0.000000 0.000000 0.000000 0.000000 10.000000 
Rope3_Seg08 0.000000 0.000000 0.000000 0.000000 0.000000 0.000000 10.000000 
Rope3_Seg09 0.000000 0.000000 0.000000 0.000000 0.000000 0.000000 10.000000 
R_rear_hand01 0.000000 0.000000 0.000000 0.000000 0.000000 0.000000 10.000000 
R_rear_hand02 0.000000 0.000000 0.000000 0.000000 0.000000 0.000000 10.000000 
R_rear_hand03 0.000000 0.000000 0.000000 0.000000 0.000000 0.000000 10.000000 
Rope4_Seg01 0.000000 0.000000 0.000000 0.000000 0.000000 0.000000 10.000000 
Rope4_Seg02 0.000000 0.000000 0.000000 0.000000 0.000000 0.000000 10.000000 
Rope4_Seg03 0.000000 0.000000 0.000000 0.000000 0.000000 0.000000 10.000000 
Rope4_Seg04 0.000000 0.000000 0.000000 0.000000 0.000000 0.000000 10.000000 
Rope4_Seg05 0.000000 0.000000 0.000000 0.000000 0.000000 0.000000 10.000000 
Rope4_Seg06 0.000000 0.000000 0.000000 0.000000 0.000000 0.000000 10.000000 
Rope4_Seg07 0.000000 0.000000 0.000000 0.000000 0.000000 0.000000 10.000000 
Rope4_Seg08 0.000000 0.000000 0.000000 0.000000 0.000000 0.000000 10.000000 
Rope4_Seg09 0.000000 0.000000 0.000000 0.000000 0.000000 0.000000 10.000000 
L_rear_hand01 0.000000 0.000000 0.000000 0.000000 0.000000 0.000000 10.000000 
L_rear_hand02 0.000000 0.000000 0.000000 0.000000 0.000000 0.000000 10.000000 
L_rear_hand03 0.000000 0.000000 0.000000 0.000000 0.000000 0.000000 10.000000 
#Beginning of Data. Separated by tabs
#Fr	Tx	Ty	Tz	Rx	Ry	Rz	SF
[MASTER]
23 0.000003 0.000015 4799.631836 0.001660 0.001660 0.001660 4799.631836
24 0.000003 0.000010 4799.468262 0.001660 0.001660 0.001660 4799.468262
[root]
23 -16.502300 -17.339750 1463.525269 -91.917336 -15.120630 -90.901848 1463.721069
24 -16.502300 -18.551092 1464.552612 -95.964027 -16.129421 -89.432541 1464.763062
[chest]
23 -84.512650 -34.090519 0.000000 3.051394 -7.603381 156.317474 91.129311
24 -84.512650 -34.090519 0.000000 -0.719618 -8.287319 158.653320 91.129311
[L_mid_tent01]
23 27.299068 22.179029 -249.918686 2.657925 13.484076 79.645195 252.381653
24 27.299068 22.179028 -249.918686 2.962941 21.320847 80.137268 252.381653
[R_mid_tent01]
23 23.228794 24.509907 226.238495 164.996902 -19.004595 78.513847 228.744751
24 23.228794 24.509907 226.238495 163.661224 -29.016983 82.013542 228.744751
[spine01]
23 -0.361383 -0.195265 0.000000 0.002062 0.001122 32.879829 0.410763
24 -0.361383 -0.195265 0.000000 0.002062 0.001122 32.879829 0.410763
[Bip01_Neck]
23 165.484543 71.581718 0.000119 176.643677 -1.657967 43.431911 180.302734
24 165.484543 71.581718 0.000119 176.643677 -1.657967 43.431911 180.302734
[L_humerus]
23 -13.983130 -135.272980 -120.471481 117.936226 69.983749 -110.953392 181.680161
24 -13.983130 -135.272980 -120.471481 95.290337 73.010254 -135.395447 181.680161
[R_humerus]
23 -13.983309 -135.273102 125.287651 -172.708206 -10.028531 -97.166672 184.909012
24 -13.983309 -135.273102 125.287651 -171.957077 -11.668606 -98.748161 184.909012
[weapon_bone]
23 235.964890 -300.705902 0.000000 0.000000 -89.951546 -128.212341 382.234833
24 235.964890 -300.705902 0.000000 0.000000 -89.951546 -128.212341 382.234833
[Bip01_Head]
23 213.451050 185.696182 12.022826 32.022293 0.134059 -43.899025 283.176575
24 213.401794 185.833130 10.252301 32.181019 0.098437 -43.899761 283.159668
[eye_left_bone]
23 -24.626970 125.451866 -64.772606 0.000000 -90.000000 -99.840431 143.318359
24 -24.626970 125.451866 -64.772606 0.000000 -90.000000 -99.840431 143.318359
[eye_right_bone]
23 -24.626970 125.451866 64.327362 0.000000 -89.965736 80.156380 143.117676
24 -24.626970 125.451866 64.327362 0.000000 -89.965736 80.156380 143.117676
[L_forearm]
23 322.776093 0.000000 -0.000119 0.000119 -0.002344 -95.807457 322.776093
24 322.776093 0.000000 -0.000119 0.000119 -0.002344 -95.807457 322.776093
[L_front_hand]
23 241.149185 -0.042021 -3.300071 -178.667953 -1.835447 -27.422350 241.171753
24 241.149185 -0.042021 -3.300071 -178.667953 -1.835447 -27.422342 241.171753
[L_weapon_bone]
23 156.183838 0.000000 0.000000 0.000014 0.000007 0.000001 156.183838
24 156.183838 0.000000 0.000000 0.000014 0.000007 0.000001 156.183838
[L_front_hand01_01]
23 86.095154 20.947098 -0.655860 -0.366594 -0.477154 75.385574 88.609184
24 86.095154 20.947098 -0.655860 -0.366594 -0.477154 75.385574 88.609184
[L_front_hand02_01]
23 86.935165 -11.437475 24.513514 154.399796 -59.883835 -61.369587 91.046425
24 86.935165 -11.437475 24.513514 154.399796 -59.883835 -61.369587 91.046425
[L_front_hand03_01]
23 86.637497 -14.123976 -20.424902 -153.913849 58.118122 -62.702866 90.126129
24 86.637497 -14.123976 -20.424902 -153.913849 58.118122 -62.702866 90.126129
[L_front_hand01_02]
23 71.020905 -0.000179 0.000030 0.000334 -0.002323 -106.379684 71.020905
24 71.020905 -0.000179 0.000030 0.000334 -0.002323 -106.379684 71.020905
[L_front_hand02_02]
23 71.020927 -0.000119 0.000060 0.000334 -0.002323 -106.379684 71.020927
24 71.020927 -0.000119 0.000060 0.000334 -0.002323 -106.379684 71.020927
[L_front_hand03_02]
23 71.020905 -0.000060 0.000060 0.000334 -0.002323 -106.379684 71.020905
24 71.020905 -0.000060 0.000060 0.000334 -0.002323 -106.379684 71.020905
[R_forearm]
23 322.776428 -0.000060 0.000030 0.209504 0.012586 -94.339050 322.776428
24 322.776428 -0.000060 0.000030 0.209504 0.012586 -94.339058 322.776428
[R_front_hand]
23 238.847015 -0.006795 2.210259 -2.635298 -10.645461 -26.312506 238.857239
24 238.847015 -0.006795 2.210259 -2.635298 -10.645461 -26.312506 238.857239
[R_weapon_bone]
23 155.664093 0.002503 -0.000030 0.003487 0.001180 -90.988930 155.664078
24 155.664093 0.002503 -0.000030 0.003487 0.001180 -90.988930 155.664078
[R_front_hand01_01]
23 87.624611 14.231146 22.918642 -154.633499 -59.950619 61.746044 91.683487
24 87.624611 14.231146 22.918642 -154.633499 -59.950619 61.746044 91.683487
[R_front_hand02_01]
23 89.356956 14.367283 -19.491137 154.602661 58.302849 63.744389 92.579636
24 89.356956 14.367283 -19.491137 154.602661 58.302849 63.744389 92.579636
[R_front_hand03_01]
23 87.286232 -22.307278 -0.143439 0.162155 -0.423168 -75.767921 90.091743
24 87.286232 -22.307278 -0.143439 0.162155 -0.423168 -75.767921 90.091743
[R_front_hand01_02]
23 71.020905 0.000060 0.000119 0.002323 -0.000334 106.381714 71.020905
24 71.020905 0.000060 0.000119 0.002323 -0.000334 106.381714 71.020905
[R_front_hand02_02]
23 71.020844 -0.000030 -0.000119 0.002323 -0.000334 106.381714 71.020836
24 71.020844 -0.000030 -0.000119 0.002323 -0.000334 106.381714 71.020836
[R_front_hand03_02]
23 71.020905 0.000000 0.000030 0.002323 -0.000334 106.381714 71.020905
24 71.020905 0.000000 0.000030 0.002323 -0.000334 106.381714 71.020905
[null_rope01_connect]
23 328.732483 0.000000 -0.000238 -143.215607 -73.943649 168.985596 328.732483
24 328.732483 0.000000 -0.000238 -150.521683 -63.033104 177.539368 328.732483
[Rope1_Seg01]
23 0.000019 -0.000057 0.000305 -7.884687 15.519565 -179.181488 0.000311
24 0.000018 -0.000058 0.000319 -6.695192 13.738569 -175.423065 0.000325
[Rope1_Seg02]
23 139.999863 -0.000179 0.000000 -0.284276 6.662230 -6.865522 139.999863
24 139.999863 -0.000179 0.000000 -0.873614 6.946457 -9.322289 139.999863
[Rope1_Seg03]
23 139.999924 0.000060 -0.000060 -1.327197 12.144725 -12.628942 139.999924
24 139.999924 0.000060 -0.000060 -2.097547 13.873427 -17.006203 139.999924
[Rope1_Seg04]
23 139.999924 -0.000060 -0.000119 -6.612435 23.373550 -19.701624 139.999924
24 139.999924 -0.000060 -0.000119 -4.713336 20.551632 -23.830015 139.999924
[Rope1_Seg05]
23 139.999832 0.000119 -0.000060 2.834594 13.141433 -20.568483 139.999832
24 139.999832 0.000119 -0.000060 18.310593 2.410869 -22.734753 139.999832
[Rope1_Seg06]
23 139.999954 0.000119 -0.000060 41.568054 0.535241 -20.517450 139.999954
24 139.999954 0.000119 -0.000060 23.122337 -4.949996 -13.013121 139.999954
[Rope1_Seg07]
23 139.999985 0.000060 0.000000 36.601845 -5.771810 -10.385570 139.999985
24 139.999985 0.000060 0.000000 13.512507 -4.107006 -5.988875 139.999985
[Rope1_Seg09]
23 121.602913 0.000119 -0.000089 -89.793175 -1.359789 0.847147 121.602913
24 121.602913 0.000119 -0.000089 -89.793175 -1.359789 0.847147 121.602913
[L_mid_hand01]
23 103.859421 1.038730 8.195221 130.544373 -67.584534 -38.866943 104.187431
24 103.859421 1.038730 8.195221 130.544373 -67.584534 -38.866943 104.187431
[L_mid_hand02]
23 105.572853 -4.139662 -10.864139 -168.923172 43.409309 -73.498886 106.211075
24 105.572853 -4.139662 -10.864139 -168.923172 43.409309 -73.498886 106.211075
[L_mid_hand03]
23 104.641464 17.579376 -3.913581 -6.012627 17.808174 74.893669 106.179977
24 104.641464 17.579376 -3.913581 -6.012627 17.808174 74.893669 106.179977
[null_rope02_connect]
23 328.732849 0.000179 -0.000119 -111.198921 67.970024 39.918129 328.732849
24 328.732849 0.000179 -0.000119 -117.478493 60.953819 35.319485 328.732849
[Rope2_Seg01]
23 -0.000038 0.000101 0.000000 81.715530 14.627668 7.808107 0.000108
24 -0.000043 0.000101 0.000000 78.633308 20.957588 7.427507 0.000110
[Rope2_Seg02]
23 139.999741 -0.000060 -0.000119 -1.216187 2.207613 -3.361383 139.999756
24 139.999741 -0.000060 -0.000119 -0.776330 2.757642 -2.921339 139.999756
[Rope2_Seg03]
23 140.000107 0.000030 0.000000 -1.843016 4.140160 -6.056648 140.000107
24 140.000107 0.000030 0.000000 -1.266852 5.428251 -5.631038 140.000107
[Rope2_Seg04]
23 139.999802 0.000000 -0.000060 -3.674309 11.121408 -16.352121 139.999802
24 139.999802 0.000000 -0.000060 -4.765689 18.443035 -25.680193 139.999802
[Rope2_Seg05]
23 139.999985 -0.000060 0.000119 1.389949 28.682638 -56.691814 139.999985
24 139.999985 -0.000060 0.000119 4.031486 39.581409 -43.071129 139.999985
[Rope2_Seg06]
23 139.999893 -0.000030 -0.000119 8.945031 13.689890 -13.052063 139.999893
24 139.999893 -0.000030 -0.000119 -30.380508 12.085188 7.863573 139.999893
[Rope2_Seg07]
23 139.999893 0.000060 -0.000060 -26.665037 13.196947 4.564325 139.999893
24 139.999893 0.000060 -0.000060 -8.653057 4.226143 1.344477 139.999893
[Rope2_Seg09]
23 121.338966 0.000089 -0.000060 33.793236 -1.359788 -0.847141 121.338966
24 121.338966 0.000089 -0.000060 33.793236 -1.359788 -0.847141 121.338966
[R_mid_hand01]
23 104.680779 11.144459 -10.335981 -16.212063 45.237247 70.462852 105.778534
24 104.680779 11.144459 -10.335981 -16.212063 45.237247 70.462852 105.778534
[R_mid_hand02]
23 104.070427 2.443552 8.231699 49.067368 -67.749771 39.286453 104.424065
24 104.070427 2.443552 8.231699 49.067368 -67.749771 39.286453 104.424065
[R_mid_hand03]
23 106.028137 -11.221827 -5.996406 -177.101105 15.551026 -76.585571 106.788818
24 106.028137 -11.221827 -5.996406 -177.101105 15.551026 -76.585571 106.788818
[spine02]
23 129.756927 0.001550 0.000119 -1.023899 -3.926965 6.770993 129.756927
24 129.756927 0.001550 0.000119 -1.023899 -3.926965 6.770993 129.756927
[spine03]
23 78.614029 0.081740 -4.898998 1.040681 4.146420 4.212376 78.766563
24 78.614029 0.081739 -4.898998 1.040681 4.146420 4.212376 78.766563
[pelvis]
23 169.435242 0.051022 0.000000 0.019518 -0.190233 -10.721435 169.435257
24 169.435242 0.051022 0.000000 0.019518 -0.190233 -10.721436 169.435257
[null_rope03_connect]
23 -1.257226 -2.466202 137.391083 -147.523453 -87.452164 -140.437408 137.418976
24 -1.257226 -2.466202 137.391083 -169.988617 -83.875000 -116.922310 137.418976
[null_rope04_connect]
23 -1.259640 -2.480268 -137.844437 -147.523453 -87.452164 -140.437408 137.872513
24 -1.259640 -2.480268 -137.844437 -169.988617 -83.875000 -116.922310 137.872513
[Rope3_Seg01]
23 0.000000 0.000000 0.000000 7.116052 -16.002182 -46.900902 0.000000
24 0.000000 0.000000 0.000000 8.567232 -12.229539 -46.701736 0.000000
[Rope3_Seg02]
23 139.999924 -0.000119 0.000060 -1.164697 -3.639649 -0.045460 139.999924
24 139.999924 -0.000119 0.000060 -1.749099 -5.021045 -0.040457 139.999924
[Rope3_Seg03]
23 139.999924 -0.000119 0.000119 -1.343239 -4.809132 -0.154799 139.999924
24 139.999924 -0.000119 0.000119 -1.817884 -6.302001 -0.240053 139.999924
[Rope3_Seg04]
23 139.999924 0.000119 0.000000 0.376405 -1.128763 -3.880418 139.999924
24 139.999924 0.000119 0.000000 -0.134718 -3.943577 -4.235617 139.999924
[Rope3_Seg05]
23 139.999924 -0.000238 0.000060 -2.752494 -14.228271 2.174993 139.999924
24 139.999924 -0.000238 0.000060 -1.571172 -11.297994 0.425484 139.999924
[Rope3_Seg06]
23 139.999893 -0.000119 -0.000060 -5.204660 -26.684372 12.402002 139.999893
24 139.999893 -0.000119 -0.000060 -4.829762 -23.558851 13.284476 139.999893
[Rope3_Seg07]
23 139.999771 0.000060 -0.000119 0.013311 -10.334946 3.715626 139.999771
24 139.999771 0.000060 -0.000119 -0.879565 -13.204585 6.529590 139.999771
[Rope3_Seg08]
23 139.999985 -0.000060 0.000000 0.571025 -4.681660 1.572247 139.999985
24 139.999985 -0.000060 0.000000 0.323056 -5.909678 2.505918 139.999985
[Rope3_Seg09]
23 90.185997 -0.000179 -0.000060 89.793228 -1.359877 -0.847183 90.185997
24 90.185997 -0.000179 -0.000060 89.793228 -1.359877 -0.847183 90.185997
[R_rear_hand01]
23 103.366196 -6.073594 -10.757982 -177.714203 24.565960 -73.910950 104.101845
24 103.366196 -6.073594 -10.757982 -177.714203 24.565960 -73.910950 104.101845
[R_rear_hand02]
23 100.509819 12.039542 -7.992327 -12.874829 36.868488 72.167213 101.543350
24 100.509819 12.039542 -7.992327 -12.874829 36.868488 72.167213 101.543350
[R_rear_hand03]
23 101.539970 5.215704 5.435467 71.484581 -71.816628 21.513813 101.819031
24 101.539970 5.215704 5.435467 71.484581 -71.816628 21.513813 101.819031
[Rope4_Seg01]
23 0.000010 0.000019 -0.000076 -87.461311 -27.379047 -128.818527 0.000079
24 0.000010 0.000018 -0.000073 -89.057137 -26.821150 -126.143921 0.000076
[Rope4_Seg02]
23 139.999985 0.000060 0.000119 0.346102 7.141312 2.976909 139.999985
24 139.999985 0.000060 0.000119 0.957756 6.736200 -0.506821 139.999985
[Rope4_Seg03]
23 139.999924 0.000000 -0.000238 0.379470 9.118429 4.299642 139.999924
24 139.999924 0.000000 -0.000238 1.712543 7.641332 -1.103526 139.999924
[Rope4_Seg04]
23 139.999985 0.000000 0.000119 -1.709284 8.443020 6.967259 139.999985
24 139.999985 0.000000 0.000119 2.075422 3.438809 -3.143301 139.999985
[Rope4_Seg05]
23 139.999802 -0.000060 -0.000119 21.200958 28.763741 4.464230 139.999802
24 139.999802 -0.000060 -0.000119 14.100604 31.579865 1.538748 139.999802
[Rope4_Seg06]
23 139.999924 0.000000 0.000060 47.305977 14.775687 -4.729253 139.999924
24 139.999924 0.000000 0.000060 33.379429 22.286686 -3.406432 139.999924
[Rope4_Seg07]
23 139.999802 0.000000 0.000000 24.882074 2.988913 -5.446486 139.999802
24 139.999802 0.000000 0.000000 22.011406 5.553280 -5.427802 139.999802
[Rope4_Seg08]
23 139.999924 0.000000 0.000119 9.466373 0.213865 -3.281229 139.999924
24 139.999924 0.000000 0.000119 10.090267 1.567714 -3.614432 139.999924
[Rope4_Seg09]
23 90.185791 0.000060 0.000060 -135.617828 2.228885 0.850567 90.185791
24 90.185791 0.000060 0.000060 -135.617828 2.228885 0.850567 90.185791
[L_rear_hand01]
23 101.696655 -8.392275 -7.654577 -12.874829 -36.868488 107.832764 102.329041
24 101.696655 -8.392275 -7.654577 -12.874829 -36.868488 107.832764 102.329041
[L_rear_hand02]
23 102.726799 -1.568258 5.773216 71.484581 71.816628 158.486160 102.900848
24 102.726799 -1.568258 5.773216 71.484581 71.816628 158.486160 102.900848
[L_rear_hand03]
23 104.552910 9.721220 -10.420293 -177.714203 -24.565960 -106.089035 105.519653
24 104.552910 9.721220 -10.420293 -177.714203 -24.565960 -106.089035 105.519653
